<?xml version="1.0" standalone="no"?>
<!DOCTYPE svg PUBLIC "-//W3C//DTD SVG 20010904//EN"
 "http://www.w3.org/TR/2001/REC-SVG-20010904/DTD/svg10.dtd">
<svg version="1.0" xmlns="http://www.w3.org/2000/svg"
 width="256.000000pt" height="256.000000pt" viewBox="0 0 256.000000 256.000000"
 preserveAspectRatio="xMidYMid meet">

<g transform="translate(0.000000,256.000000) scale(0.100000,-0.100000)"
fill="#000000" stroke="none">
<path d="M1175 2547 c-129 -43 -214 -123 -255 -239 l-18 -53 -274 -5 c-250 -5
-277 -7 -318 -26 -123 -57 -184 -200 -141 -328 19 -54 77 -115 136 -142 l50
-24 914 0 c672 0 924 3 953 12 50 15 122 78 151 132 17 31 22 58 22 117 0 67
-3 81 -30 125 -37 59 -107 108 -175 123 -29 6 -159 11 -300 11 -236 0 -250 1
-250 18 0 37 -61 141 -111 187 -70 65 -142 96 -237 101 -48 2 -92 -1 -117 -9z
m176 -129 c50 -14 114 -69 139 -119 11 -21 20 -41 20 -44 0 -3 -108 -5 -240
-5 l-241 0 17 33 c62 122 178 173 305 135z m875 -331 c63 -58 54 -163 -18
-207 -32 -20 -48 -20 -933 -20 -863 0 -901 1 -931 19 -32 20 -64 74 -64 110 0
40 28 90 62 111 32 20 48 20 941 20 l907 0 36 -33z"/>
<path d="M396 1581 c-15 -17 -16 -70 -14 -662 l3 -644 29 -57 c40 -78 108
-145 186 -182 l65 -31 610 0 610 0 50 23 c105 49 183 137 217 244 17 55 18
105 18 674 0 601 0 614 -20 634 -11 11 -31 20 -45 20 -14 0 -34 -9 -45 -20
-20 -20 -20 -33 -20 -637 l0 -618 -24 -50 c-28 -60 -66 -97 -126 -124 -44 -20
-63 -21 -611 -21 -632 0 -621 -1 -692 68 -77 74 -71 25 -77 728 -5 604 -6 633
-24 653 -24 26 -67 27 -90 2z"/>
<path d="M780 1490 c-20 -20 -20 -33 -20 -575 l0 -556 25 -24 c31 -31 49 -31
80 0 l25 24 0 556 c0 542 0 555 -20 575 -11 11 -31 20 -45 20 -14 0 -34 -9
-45 -20z"/>
<path d="M1230 1490 c-20 -20 -20 -33 -20 -578 0 -455 3 -562 14 -577 19 -27
74 -24 98 4 17 22 18 54 18 577 0 541 0 554 -20 574 -11 11 -31 20 -45 20 -14
0 -34 -9 -45 -20z"/>
<path d="M1677 1492 c-15 -17 -17 -71 -17 -574 0 -306 3 -564 6 -573 8 -21 46
-35 73 -28 50 13 51 22 51 598 0 536 -2 566 -34 587 -20 14 -63 8 -79 -10z"/>
</g>
</svg>
